<?xml version="1.0" encoding="utf-8"?>
<!-- Generator: Adobe Illustrator 25.0.1, SVG Export Plug-In . SVG Version: 6.00 Build 0)  -->
<svg version="1.1" id="Calque_1" xmlns="http://www.w3.org/2000/svg" xmlns:xlink="http://www.w3.org/1999/xlink" x="0px" y="0px"
	 viewBox="0 0 297 210" style="enable-background:new 0 0 297 210;" xml:space="preserve">
<style type="text/css">
	.st0{fill:#FFFFFF;}
	.st1{clip-path:url(#SVGID_2_);}
</style>
<g>
	<rect x="-20.33" y="27.47" class="st0" width="332.84" height="155.02"/>
	<g>
		<defs>
			<rect id="SVGID_1_" x="-29.17" y="20.85" width="350.52" height="162.66"/>
		</defs>
		<clipPath id="SVGID_2_">
			<use xlink:href="#SVGID_1_"  style="overflow:visible;"/>
		</clipPath>
		<path class="st1" d="M128.16,107.34c0.01-0.16,0.03-0.28,0.04-0.41c-0.85-0.77-1.73-1.49-2.65-2.18
			c-0.07,0.17-0.24,0.57-0.54,1.26c-0.33,0.76-0.75,1.7-1.26,2.84c-0.51,1.14-1.09,2.41-1.73,3.82c-0.64,1.41-1.3,2.83-1.97,4.25
			l-5.47-12.23h-4.88v0.23c0.18,0.03,0.4,0.08,0.66,0.15c0.26,0.07,0.5,0.18,0.73,0.33c0.23,0.15,0.43,0.36,0.59,0.62
			c0.17,0.26,0.26,0.6,0.27,1.02c0.01,0.44,0.02,0.8,0.02,1.1V109v0.85v1.1c0,1-0.01,1.94-0.02,2.82c-0.01,0.88-0.04,1.64-0.07,2.28
			c-0.01,0.76-0.07,1.41-0.16,1.94c-0.09,0.53-0.24,0.98-0.44,1.34c-0.2,0.36-0.47,0.64-0.8,0.84c-0.34,0.2-0.77,0.36-1.3,0.46v0.22
			h5.97v-0.22c-0.66-0.09-1.17-0.24-1.54-0.44c-0.37-0.2-0.65-0.48-0.84-0.83c-0.18-0.35-0.3-0.79-0.34-1.3
			c-0.05-0.52-0.07-1.13-0.07-1.83v-2.88c0-0.82,0-1.61,0.01-2.35c0.01-0.74,0.02-1.49,0.02-2.25c0.01-0.76,0.01-1.63,0.01-2.62
			c0.08,0.17,0.22,0.48,0.42,0.94c0.21,0.47,0.47,1.04,0.79,1.73c0.32,0.69,0.68,1.48,1.08,2.36c0.4,0.88,0.82,1.83,1.28,2.84
			c0.46,1.01,0.93,2.07,1.41,3.16c0.48,1.09,0.96,2.2,1.45,3.31H119c0.03-0.09,0.11-0.27,0.23-0.55c0.12-0.28,0.25-0.58,0.39-0.92
			c0.14-0.34,0.27-0.67,0.41-0.99c0.14-0.32,0.24-0.56,0.32-0.71c0.5-1.11,0.96-2.12,1.38-3.05c0.42-0.92,0.84-1.83,1.25-2.71
			c0.41-0.88,0.83-1.79,1.25-2.72c0.42-0.93,0.88-1.95,1.39-3.06v6.36v2.79c0,0.9-0.02,1.84-0.05,2.83c-0.01,0.3-0.05,0.6-0.09,0.89
			c-0.05,0.29-0.11,0.54-0.21,0.73c-0.15,0.31-0.45,0.59-0.89,0.83c-0.44,0.24-0.99,0.37-1.65,0.4v0.25h7.85v-0.22
			c-0.37-0.01-0.69-0.07-0.96-0.17s-0.5-0.21-0.69-0.34c-0.18-0.13-0.32-0.25-0.42-0.36c-0.1-0.11-0.16-0.18-0.17-0.21
			c-0.09-0.17-0.16-0.39-0.19-0.69c-0.04-0.29-0.06-0.58-0.06-0.87c-0.01-0.88-0.02-1.72-0.02-2.52v-2.43v-2.05
			c0-0.67,0.01-1.37,0.02-2.09C128.1,108.41,128.12,107.88,128.16,107.34 M132.25,120.87H138c-0.1-0.24-0.19-0.48-0.29-0.72
			c-0.1-0.06-0.21-0.12-0.26-0.2c-0.13-0.2-0.22-0.52-0.26-0.93c-0.76-1.61-1.63-3.16-2.61-4.65c0,0.32,0,0.64-0.01,0.95
			c-0.01,0.43-0.02,0.82-0.02,1.18c-0.01,0.36-0.01,0.64-0.01,0.85c0,0.24-0.01,0.48-0.02,0.73c-0.01,0.25-0.04,0.48-0.08,0.71
			c-0.04,0.23-0.08,0.42-0.13,0.6c-0.05,0.17-0.11,0.3-0.18,0.39c-0.21,0.24-0.48,0.43-0.81,0.56c-0.33,0.14-0.68,0.23-1.06,0.29
			V120.87z M95.47,81.17H91.6v1.71l0,1.71l0.38-1.2c0.29-0.93,1.06-1.64,2.02-1.87L95.47,81.17z M86.14,81.17v18.99
			c1.75-0.77,3.58-1.41,5.46-1.92V81.17v0H86.14z M66.11,97.92l1.19,1.99l1.07-2.05l2.04-1.16l-2.11-1.04l-1.19-1.99l-1.07,2.05
			L64,96.87L66.11,97.92z M44.77,114.51c0-0.36,0-0.62-0.01-0.7c-0.14,0.49-0.27,0.99-0.51,1.45c-0.23,0.47-0.57,0.9-1.02,1.18
			c-0.68,0.43-1.54,0.47-2.31,0.71h3.84C44.74,117.16,44.77,115.51,44.77,114.51 M52.61,81.53l1.48-0.36h-3.87v-0.01h-8.92
			l1.23,0.37c0.94,0.28,1.67,1.03,1.91,1.97l0.32,1.25v29.75v2.65h5.46h3.51l-1.23-0.36c-0.46-0.14-0.89-0.4-1.23-0.74
			c-0.7-0.73-0.82-1.74-1.05-2.66V84.6l0.37-1.2C50.89,82.47,51.65,81.77,52.61,81.53 M59.57,117.16l2.05,0h5.58v-13.53
			c-0.17,1.35-0.33,7.72-1.88,10.58C63.73,117.16,60.71,116.59,59.57,117.16 M64.2,81.12h0.07l0,0l-1.21,0l0.65,0.3
			c0.63,0.34,0.78,0.53,1.28,1.04l2.47,2.52L64.2,81.12z M79.19,98.88l2.3-4.5L70.17,81.12l-5.9,0l3.35,4.02l-0.16-0.17L79.19,98.88
			z M103.62,99.17c0-0.75-0.03-1.49-0.08-2.23c-0.54-0.02-1.08-0.07-1.63-0.07c-3.57,0-7.03,0.48-10.31,1.37v15.47
			c0-0.1,0.03-0.21,0-0.31c0.24,0.92,0.36,1.94,1.05,2.66c0.34,0.34,0.76,0.6,1.23,0.74l1.23,0.37h-1.76H91.6h-5.46v-17.01
			c-13.28,5.81-22.64,18.71-23.06,33.82c1.49,0.18,3,0.29,4.54,0.29C87.5,134.26,103.62,118.55,103.62,99.17 M130.09,84.76
			c-0.31,0.76-0.65,1.58-1.02,2.46h5.7c-0.26-0.67-0.52-1.35-0.79-2.02c-0.27-0.67-0.53-1.32-0.78-1.94
			c-0.25-0.62-0.48-1.19-0.69-1.71c-0.21-0.52-0.38-0.94-0.51-1.27c-0.09,0.2-0.23,0.5-0.4,0.92c-0.18,0.42-0.39,0.93-0.65,1.53
			C130.69,83.32,130.4,84,130.09,84.76 M159.28,110.04c0.11-0.37,0.16-0.76,0.16-1.17c0-0.75-0.19-1.42-0.57-2
			c-0.38-0.58-0.94-1.05-1.67-1.39c-0.37-0.16-0.75-0.28-1.16-0.36c-0.4-0.07-0.83-0.11-1.27-0.11c-0.32,0-0.58,0.01-0.78,0.02
			s-0.35,0.03-0.46,0.04c-0.01,0.09-0.03,0.17-0.05,0.24c-0.02,0.07-0.03,0.15-0.03,0.26c-0.01,0.1-0.01,0.25-0.02,0.44
			c-0.01,0.19-0.02,0.45-0.03,0.8c-0.02,0.52-0.03,1.12-0.03,1.78c-0.01,0.66-0.01,1.3-0.01,1.91v1.62v0.85
			c0.62,0,1.21-0.03,1.75-0.08c0.54-0.05,1.06-0.16,1.57-0.33c0.49-0.15,0.91-0.35,1.26-0.61c0.35-0.25,0.64-0.54,0.86-0.87
			C159.01,110.76,159.17,110.41,159.28,110.04 M209.79,91.64c-0.17,0.21-0.37,0.4-0.58,0.58c0.28,0.57,0.59,1.13,0.91,1.68h0.36
			l0.85-4.63l-0.23-0.07c-0.18,0.45-0.37,0.88-0.57,1.29C210.32,90.9,210.08,91.28,209.79,91.64 M226.2,85.71
			c0,0.94-0.12,1.89-0.35,2.83c-0.24,0.94-0.59,1.8-1.06,2.55c-0.47,0.76-1.06,1.38-1.77,1.85c-0.71,0.48-1.54,0.72-2.51,0.72
			c-0.96,0-1.8-0.22-2.53-0.65c-0.72-0.43-1.33-1.01-1.81-1.73c-0.48-0.72-0.84-1.55-1.09-2.5c-0.24-0.94-0.37-1.93-0.37-2.95
			c0-0.97,0.11-1.94,0.33-2.89c0.22-0.95,0.56-1.8,1.03-2.55c0.47-0.75,1.06-1.36,1.78-1.83c0.72-0.47,1.58-0.71,2.58-0.71
			c0.98,0,1.82,0.24,2.54,0.71c0.72,0.47,1.32,1.09,1.8,1.84c0.48,0.76,0.84,1.6,1.08,2.53C226.08,83.87,226.2,84.8,226.2,85.71
			 M228.35,89.02c0.46-1.02,0.69-2.13,0.69-3.33c0-1.08-0.19-2.11-0.57-3.1c-0.38-0.99-0.93-1.86-1.65-2.62
			c-0.72-0.76-1.59-1.36-2.62-1.81c-1.03-0.45-2.19-0.67-3.49-0.67c-1.19,0-2.32,0.19-3.4,0.57c-1.08,0.38-2.01,0.93-2.82,1.64
			c-0.8,0.71-1.44,1.58-1.91,2.61c-0.47,1.03-0.71,2.18-0.71,3.47c0,1.21,0.22,2.33,0.68,3.34c0.45,1.01,1.06,1.88,1.84,2.61
			c0.78,0.73,1.69,1.29,2.72,1.69c1.04,0.4,2.14,0.6,3.3,0.6c1.17,0,2.28-0.2,3.33-0.61c1.05-0.4,1.96-0.98,2.75-1.73
			C227.27,90.92,227.89,90.04,228.35,89.02 M246.66,81.93l0.21-0.07l-0.73-4.38c-0.35,0.1-0.69,0.19-1.02,0.26
			c-0.33,0.07-0.74,0.11-1.25,0.12c-0.58,0-1.1,0-1.56,0.01c-0.46,0.01-0.9,0.01-1.33,0.02c-0.43,0.01-0.87,0.01-1.33,0.01h-1.51
			h-1.53h-1.3c-0.43,0-0.87,0-1.33-0.01c-0.46-0.01-0.98-0.02-1.56-0.03c-0.56-0.01-1-0.05-1.29-0.09c-0.3-0.04-0.62-0.1-0.97-0.18
			l-0.69,4.27l0.21,0.07c0.09-0.27,0.22-0.55,0.38-0.83c0.16-0.28,0.33-0.55,0.5-0.8c0.18-0.25,0.34-0.48,0.5-0.69
			c0.16-0.21,0.3-0.37,0.42-0.47c0.32-0.3,0.67-0.51,1.04-0.63c0.37-0.12,0.85-0.19,1.43-0.2c0.29,0,0.55,0,0.77-0.01
			c0.22-0.01,0.43-0.01,0.63-0.01h0.66h0.85v7.44v1.28c0,0.45,0,0.88-0.01,1.3c-0.01,0.42-0.01,0.8-0.02,1.15
			c-0.01,0.34-0.01,0.62-0.01,0.83c0,0.24,0,0.49-0.01,0.74c-0.01,0.25-0.02,0.49-0.05,0.71c-0.02,0.22-0.05,0.41-0.09,0.58
			c-0.04,0.17-0.1,0.3-0.17,0.37c-0.35,0.39-0.71,0.64-1.08,0.74c-0.37,0.11-0.75,0.18-1.14,0.23v0.23h7.44v-0.23
			c-0.34-0.06-0.71-0.15-1.13-0.27c-0.42-0.12-0.74-0.34-0.97-0.67c-0.12-0.16-0.2-0.45-0.22-0.84c-0.02-0.4-0.03-0.81-0.03-1.25
			v-4.99v-1.71v-2.09c0-0.7,0-1.38,0.01-2.02c0.01-0.64,0.01-1.15,0.01-1.53h0.85h0.66c0.21,0,0.43,0,0.64,0.01
			c0.21,0.01,0.47,0.01,0.76,0.01c0.58,0.01,1.06,0.07,1.43,0.17c0.37,0.1,0.72,0.3,1.04,0.6c0.12,0.11,0.27,0.27,0.43,0.48
			c0.17,0.22,0.34,0.45,0.52,0.71c0.17,0.25,0.35,0.53,0.51,0.82C246.39,81.38,246.54,81.66,246.66,81.93 M271.84,78.1
			c0,17.84-14.76,32.3-32.97,32.3c-12.35,0-23.11-6.66-28.75-16.5h-14.33v-0.23c0.38-0.06,0.76-0.16,1.13-0.29
			c0.37-0.14,0.67-0.32,0.88-0.56c0.08-0.09,0.14-0.22,0.19-0.39c0.05-0.17,0.1-0.37,0.13-0.6c0.03-0.22,0.06-0.46,0.08-0.71
			c0.02-0.25,0.03-0.49,0.03-0.73c0-0.21,0-0.49,0.01-0.85c0.01-0.36,0.01-0.75,0.02-1.18c0.01-0.43,0.01-0.87,0.01-1.32v-1.3v-4.36
			v-0.79c0-0.27-0.01-0.52-0.03-0.75c-0.02-0.23-0.06-0.44-0.1-0.62c-0.05-0.18-0.11-0.32-0.21-0.43c-0.21-0.25-0.5-0.45-0.86-0.58
			c-0.36-0.13-0.74-0.23-1.13-0.27v-0.22h7.3v0.22c-0.2,0.03-0.43,0.08-0.71,0.14s-0.53,0.16-0.78,0.29
			c-0.24,0.13-0.45,0.33-0.63,0.57c-0.18,0.25-0.27,0.57-0.29,0.98c-0.02,0.52-0.03,1-0.03,1.44c-0.01,0.43-0.01,0.86-0.02,1.28
			c-0.01,0.42-0.01,0.85-0.01,1.3v1.51v1.39v1.19c0,0.39,0,0.79,0.01,1.2c0.01,0.41,0.01,0.87,0.01,1.38
			c0.01,0.48,0.03,0.94,0.06,1.37c0.02,0.44,0.1,0.76,0.24,0.97c0.06,0.07,0.18,0.15,0.37,0.22c0.18,0.08,0.4,0.14,0.66,0.19
			c0.26,0.05,0.54,0.1,0.85,0.14c0.31,0.04,0.61,0.06,0.92,0.06c0.12,0,0.32,0,0.58-0.01c0.27-0.01,0.56-0.02,0.88-0.04
			c0.32-0.02,0.65-0.06,0.98-0.1c0.34-0.04,0.63-0.1,0.89-0.18c0.61-0.17,1.12-0.38,1.52-0.65c0.17-0.11,0.32-0.23,0.46-0.36
			c-2.12-4.26-3.31-9.05-3.31-14.11c0-17.84,14.76-32.3,32.97-32.3C257.08,45.81,271.84,60.27,271.84,78.1 M194.82,89.6l-1.14,4.29
			h-14.01v-0.23c0.38-0.06,0.74-0.16,1.06-0.29c0.33-0.14,0.6-0.32,0.81-0.56c0.08-0.09,0.14-0.22,0.18-0.39
			c0.05-0.17,0.09-0.37,0.13-0.6c0.04-0.22,0.06-0.46,0.08-0.71c0.01-0.25,0.02-0.49,0.02-0.73c0-0.21,0-0.49,0.01-0.85
			c0.01-0.36,0.01-0.75,0.02-1.18c0.01-0.43,0.01-0.87,0.01-1.32v-1.3v-4.38c0-0.27,0-0.55-0.01-0.83
			c-0.01-0.28-0.02-0.55-0.05-0.81c-0.02-0.25-0.06-0.48-0.11-0.69c-0.05-0.2-0.13-0.35-0.22-0.44c-0.23-0.24-0.47-0.39-0.73-0.46
			c-0.26-0.07-0.59-0.13-1.01-0.19v-0.22h12.63l1.56,3.71l-0.23,0.11c-1.24-1.51-2.4-2.53-3.48-3.06c-0.26-0.12-0.74-0.23-1.44-0.31
			c-0.7-0.09-1.56-0.13-2.56-0.13c-0.32,0-0.65,0.01-1,0.03c-0.34,0.02-0.59,0.05-0.74,0.08c-0.03,0.24-0.06,0.74-0.08,1.48
			c-0.02,0.75-0.03,1.62-0.03,2.61v1.44c0,0.39,0,0.71,0.01,0.96c0.01,0.25,0.01,0.44,0.01,0.57v0.25h0.46
			c0.23,0,0.49-0.01,0.79-0.02c0.3-0.01,0.59-0.03,0.89-0.06c0.3-0.02,0.55-0.06,0.74-0.1c0.46-0.1,0.84-0.25,1.14-0.43
			c0.31-0.18,0.55-0.4,0.74-0.65c0.19-0.25,0.34-0.55,0.46-0.89c0.11-0.34,0.22-0.72,0.31-1.14h0.27v7.08h-0.27
			c-0.12-0.48-0.31-0.97-0.56-1.48c-0.25-0.51-0.51-0.89-0.79-1.15c-0.24-0.21-0.54-0.38-0.88-0.52c-0.34-0.14-0.74-0.22-1.2-0.25
			c-0.23-0.01-0.42-0.03-0.57-0.03c-0.15-0.01-0.31-0.01-0.46-0.01h-0.46h-0.59c-0.03,0.21-0.05,0.52-0.05,0.92v1.26v0.67v0.76
			c0,0.24,0,0.47,0.01,0.69c0.01,0.22,0.01,0.4,0.01,0.55c0.01,0.48,0.04,0.93,0.08,1.36c0.04,0.43,0.13,0.75,0.26,0.96
			c0.14,0.21,0.47,0.36,0.98,0.45c0.52,0.09,1.08,0.13,1.69,0.13c0.26,0,0.59-0.01,1-0.02c0.4-0.01,0.83-0.05,1.27-0.11
			c0.49-0.06,0.94-0.18,1.35-0.35c0.41-0.17,0.81-0.42,1.19-0.73c0.38-0.31,0.75-0.7,1.11-1.16s0.73-1.01,1.11-1.65L194.82,89.6z
			 M178.89,105.14c0.46,0.19,0.81,0.37,1.05,0.54c0.24,0.17,0.38,0.25,0.41,0.25c0.03,0,0.09-0.03,0.17-0.1
			c0.08-0.07,0.18-0.15,0.27-0.25c0.1-0.1,0.2-0.21,0.31-0.34c0.11-0.13,0.21-0.26,0.3-0.39h0.25v5.04l-0.27,0.02
			c-0.2-0.72-0.5-1.39-0.89-2.02c-0.4-0.63-0.87-1.18-1.41-1.64c-0.54-0.47-1.15-0.83-1.83-1.1c-0.68-0.27-1.4-0.41-2.16-0.41
			c-1.05,0-1.99,0.23-2.82,0.7c-0.82,0.47-1.51,1.08-2.07,1.84c-0.56,0.76-0.98,1.63-1.28,2.6c-0.3,0.97-0.45,1.96-0.45,2.98
			c0,1.08,0.16,2.09,0.47,3.03c0.31,0.94,0.76,1.77,1.34,2.46c0.58,0.7,1.28,1.25,2.11,1.65c0.82,0.41,1.74,0.61,2.75,0.61
			c0.79,0,1.54-0.14,2.23-0.43c0.69-0.28,1.31-0.66,1.85-1.12c0.54-0.46,1-1,1.37-1.61c0.37-0.61,0.63-1.23,0.77-1.88h0.27
			l-0.07,4.95h-0.27c-0.18-0.25-0.37-0.49-0.57-0.7c-0.2-0.21-0.34-0.31-0.41-0.31c-0.03,0-0.17,0.08-0.41,0.24
			c-0.24,0.16-0.59,0.33-1.05,0.52c-0.46,0.19-1.02,0.35-1.67,0.49c-0.66,0.14-1.41,0.21-2.27,0.21c-1.42,0-2.7-0.2-3.85-0.6
			c-1.14-0.4-2.12-0.96-2.92-1.69c-0.8-0.73-1.42-1.6-1.84-2.61c-0.43-1.01-0.64-2.12-0.64-3.34c0-0.27,0.02-0.58,0.06-0.92
			c0.04-0.34,0.11-0.71,0.21-1.1c0.1-0.39,0.24-0.8,0.41-1.23c0.17-0.43,0.4-0.86,0.68-1.29c0.32-0.51,0.72-1,1.19-1.46
			c0.47-0.46,1.03-0.87,1.67-1.23c0.64-0.35,1.37-0.63,2.17-0.84c0.81-0.21,1.72-0.31,2.72-0.31c0.92,0,1.72,0.08,2.4,0.25
			C177.86,104.76,178.44,104.94,178.89,105.14 M177.61,82.9l-0.27,0.02c-0.2-0.72-0.5-1.39-0.89-2.02c-0.4-0.63-0.87-1.18-1.41-1.64
			c-0.54-0.46-1.15-0.83-1.83-1.1c-0.68-0.27-1.4-0.4-2.16-0.4c-1.05,0-1.99,0.23-2.82,0.7c-0.82,0.47-1.51,1.08-2.07,1.84
			c-0.56,0.76-0.98,1.63-1.28,2.6c-0.3,0.97-0.45,1.96-0.45,2.98c0,1.08,0.16,2.09,0.47,3.04c0.31,0.94,0.76,1.76,1.34,2.46
			c0.58,0.7,1.28,1.25,2.11,1.65c0.82,0.41,1.74,0.61,2.75,0.61c0.79,0,1.54-0.14,2.23-0.43c0.69-0.28,1.31-0.66,1.85-1.12
			c0.54-0.46,1-1,1.37-1.61c0.37-0.61,0.63-1.23,0.77-1.88h0.27l-0.07,4.95h-0.27c-0.18-0.25-0.37-0.49-0.57-0.7
			c-0.2-0.21-0.34-0.31-0.41-0.31c-0.03,0-0.17,0.08-0.41,0.24c-0.24,0.16-0.59,0.33-1.05,0.52c-0.46,0.19-1.01,0.35-1.67,0.49
			c-0.66,0.14-1.41,0.21-2.27,0.21c-1.42,0-2.7-0.2-3.84-0.6c-1.14-0.4-2.12-0.96-2.92-1.69c-0.8-0.73-1.42-1.6-1.84-2.61
			c-0.43-1.01-0.64-2.12-0.64-3.34c0-0.27,0.02-0.58,0.06-0.92c0.04-0.34,0.11-0.71,0.21-1.1c0.1-0.39,0.24-0.8,0.41-1.23
			c0.18-0.43,0.4-0.86,0.68-1.29c0.32-0.51,0.72-1,1.19-1.46c0.47-0.46,1.03-0.87,1.67-1.23c0.64-0.35,1.37-0.63,2.17-0.84
			c0.81-0.21,1.72-0.31,2.72-0.31c0.92,0,1.72,0.08,2.4,0.25c0.69,0.17,1.26,0.35,1.72,0.54c0.46,0.2,0.81,0.37,1.05,0.54
			c0.24,0.16,0.38,0.25,0.41,0.25c0.03,0,0.09-0.03,0.17-0.1c0.08-0.07,0.17-0.15,0.27-0.25c0.1-0.1,0.2-0.21,0.31-0.34
			c0.11-0.13,0.21-0.26,0.3-0.39h0.25V82.9z M161.45,106.77c0.41,0.59,0.62,1.34,0.62,2.24c0,0.55-0.1,1.05-0.31,1.5
			c-0.21,0.44-0.48,0.83-0.82,1.17c-0.34,0.34-0.74,0.63-1.2,0.87c-0.46,0.24-0.94,0.44-1.44,0.61v0.07
			c0.26,0.13,0.51,0.33,0.76,0.58c0.24,0.25,0.48,0.54,0.71,0.85c0.4,0.57,0.83,1.18,1.29,1.84s0.88,1.24,1.25,1.75
			c0.56,0.78,1.11,1.35,1.65,1.71c0.53,0.36,1.16,0.59,1.88,0.7v0.22h-4.69c-0.14-0.13-0.24-0.24-0.3-0.3
			c-0.06-0.07-0.13-0.15-0.21-0.24s-0.17-0.22-0.29-0.39c-0.11-0.17-0.29-0.43-0.54-0.78c-0.29-0.42-0.55-0.8-0.77-1.13
			c-0.22-0.34-0.45-0.67-0.68-1c-0.23-0.33-0.48-0.66-0.74-1s-0.58-0.72-0.95-1.14c-0.31-0.34-0.64-0.67-1-0.97
			c-0.36-0.3-0.74-0.49-1.13-0.56c-0.29-0.06-0.51-0.09-0.66-0.09c-0.14,0-0.31-0.01-0.53-0.02v2.54c0,0.72,0.01,1.33,0.02,1.82
			c0.01,0.48,0.03,0.89,0.05,1.24c0.01,0.35,0.1,0.63,0.25,0.85c0.12,0.2,0.36,0.39,0.71,0.6s0.84,0.32,1.46,0.35v0.22h-7.32v-0.22
			c0.38-0.06,0.75-0.15,1.1-0.27c0.35-0.12,0.63-0.3,0.82-0.54c0.08-0.09,0.14-0.22,0.18-0.4c0.05-0.18,0.08-0.38,0.1-0.61
			c0.02-0.23,0.04-0.46,0.06-0.72c0.01-0.25,0.02-0.5,0.02-0.74c0-0.21,0-0.5,0.01-0.85c0.01-0.36,0.01-0.75,0.02-1.18
			c0.01-0.43,0.01-0.86,0.01-1.32v-1.3v-4.38c0-0.27,0-0.54-0.01-0.82c-0.01-0.28-0.02-0.54-0.05-0.79
			c-0.02-0.25-0.06-0.47-0.11-0.67c-0.05-0.2-0.13-0.35-0.22-0.44c-0.23-0.24-0.48-0.4-0.77-0.48c-0.28-0.08-0.63-0.15-1.04-0.21
			v-0.23h0.94c0.52,0,1.11,0,1.76-0.01c0.66-0.01,1.31-0.01,1.97-0.01h1.6c1.02,0,1.93,0.03,2.72,0.09
			c0.79,0.06,1.52,0.26,2.17,0.61C160.5,105.71,161.04,106.17,161.45,106.77 M160.31,77.93c-0.57,0.08-1.02,0.22-1.36,0.43
			c-0.34,0.21-0.61,0.53-0.79,0.97c-0.11,0.23-0.18,0.64-0.21,1.25c-0.03,0.61-0.06,1.26-0.09,1.94c-0.03,0.64-0.06,1.41-0.08,2.28
			c-0.02,0.88-0.03,1.82-0.03,2.82v1.44c0,0.52,0,1.06,0.01,1.61c0.01,0.55,0.01,1.09,0.01,1.63v1.46c0,0.06-0.02,0.11-0.06,0.15
			c-0.04,0.04-0.1,0.06-0.17,0.06c-0.12,0-0.26-0.07-0.41-0.22c-1.3-1.47-2.48-2.82-3.55-4.05c-1.07-1.23-2.09-2.4-3.06-3.52
			c-0.97-1.12-1.92-2.21-2.85-3.27c-0.93-1.06-1.91-2.17-2.95-3.31v9.49c0,0.76,0.02,1.45,0.06,2.07c0.04,0.62,0.13,1.07,0.29,1.37
			c0.17,0.34,0.43,0.6,0.79,0.78c0.36,0.17,0.85,0.3,1.48,0.37v0.23h-5.63v-0.23c0.37-0.04,0.73-0.14,1.1-0.28
			c0.37-0.14,0.66-0.38,0.87-0.71c0.21-0.31,0.35-0.78,0.41-1.39c0.06-0.61,0.11-1.35,0.14-2.2c0.03-0.64,0.05-1.4,0.07-2.28
			c0.01-0.88,0.02-1.82,0.02-2.82V82.9v-0.83v-0.83c0-0.3-0.01-0.67-0.02-1.1c-0.05-0.43-0.15-0.79-0.32-1.07
			c-0.17-0.28-0.37-0.5-0.59-0.65c-0.23-0.16-0.48-0.27-0.74-0.34s-0.52-0.12-0.77-0.15v-0.22h4.65l10.85,12.45v-7.64
			c0-0.6-0.01-1.17-0.02-1.72c-0.01-0.55-0.08-0.98-0.21-1.29c-0.15-0.42-0.42-0.76-0.81-1.02c-0.39-0.26-0.95-0.45-1.68-0.55v-0.22
			h5.68V77.93z M150.46,51.36c0,8.31-6.86,15.05-15.32,15.05s-15.32-6.74-15.32-15.05c0-8.31,6.86-15.05,15.32-15.05
			S150.46,43.05,150.46,51.36 M118.98,93.5c0.32-0.02,0.65-0.06,0.98-0.1c0.34-0.04,0.63-0.1,0.89-0.18
			c0.61-0.17,1.12-0.38,1.52-0.65c0.4-0.27,0.75-0.58,1.04-0.93c0.29-0.35,0.53-0.73,0.73-1.15c0.2-0.41,0.39-0.84,0.57-1.29
			l0.23,0.07l-0.8,4.37c0.38-0.05,0.7-0.15,0.97-0.31c0.28-0.16,0.45-0.28,0.49-0.34c0.11-0.1,0.28-0.35,0.53-0.74
			c0.24-0.39,0.54-0.97,0.89-1.73c0.32-0.7,0.68-1.51,1.08-2.41c0.4-0.9,0.81-1.83,1.22-2.78c0.42-0.95,0.84-1.91,1.25-2.88
			c0.41-0.97,0.8-1.87,1.17-2.71l-0.23-0.49c0.27-0.12,0.52-0.26,0.74-0.43c0.22-0.16,0.42-0.34,0.58-0.52
			c0.17-0.18,0.31-0.35,0.42-0.52c0.11-0.17,0.2-0.3,0.26-0.4h0.18c0.47,1.24,0.92,2.42,1.35,3.54c0.43,1.12,0.84,2.19,1.22,3.23
			c0.39,1.03,0.77,2.03,1.13,3c0.37,0.97,0.73,1.92,1.1,2.87c0.17,0.47,0.32,0.85,0.47,1.16c0.14,0.31,0.31,0.66,0.49,1.05
			c0.03,0.06,0.1,0.16,0.21,0.31c0.11,0.15,0.25,0.3,0.42,0.46c0.18,0.16,0.39,0.3,0.65,0.42c0.26,0.12,0.56,0.19,0.92,0.2v0.27H135
			v-0.23c0.05,0,0.16-0.01,0.33-0.04c0.18-0.03,0.36-0.08,0.55-0.16c0.19-0.07,0.36-0.18,0.5-0.31c0.14-0.14,0.22-0.31,0.22-0.52
			c0-0.14-0.04-0.36-0.13-0.66c-0.08-0.31-0.2-0.68-0.35-1.12c-0.15-0.44-0.33-0.93-0.53-1.47c-0.2-0.54-0.41-1.1-0.64-1.69h-6.09
			c-0.23,0.57-0.45,1.11-0.66,1.63c-0.21,0.52-0.43,1.04-0.64,1.56c-0.32,0.81-0.48,1.38-0.48,1.71c0,0.19,0.06,0.36,0.18,0.48
			c0.12,0.13,0.28,0.23,0.47,0.31c0.19,0.08,0.4,0.14,0.62,0.18c0.22,0.04,0.43,0.07,0.63,0.1v0.23h-4.87l0.05-0.26
			c-0.02,0-0.03,0.01-0.05,0.01v0.25h-14.69v-0.23c0.38-0.06,0.76-0.16,1.13-0.29c0.37-0.14,0.67-0.32,0.88-0.56
			c0.08-0.09,0.14-0.22,0.2-0.39c0.05-0.17,0.09-0.37,0.13-0.6c0.03-0.22,0.06-0.46,0.08-0.71c0.02-0.25,0.03-0.49,0.03-0.73
			c0-0.21,0-0.49,0.01-0.85c0.01-0.36,0.01-0.75,0.02-1.18c0.01-0.43,0.01-0.87,0.01-1.32v-1.3v-4.36v-0.79
			c0-0.27-0.01-0.52-0.03-0.75c-0.02-0.23-0.06-0.44-0.1-0.62c-0.05-0.18-0.11-0.32-0.21-0.43c-0.21-0.25-0.5-0.45-0.86-0.58
			c-0.36-0.13-0.74-0.23-1.13-0.27v-0.22h7.3v0.22c-0.2,0.03-0.44,0.08-0.71,0.14s-0.53,0.16-0.78,0.29
			c-0.24,0.13-0.45,0.33-0.63,0.57c-0.18,0.25-0.27,0.57-0.29,0.98c-0.01,0.52-0.03,1-0.03,1.44c-0.01,0.43-0.02,0.86-0.02,1.28
			c-0.01,0.42-0.01,0.85-0.01,1.3v1.51v1.39v1.19c0,0.39,0,0.79,0.01,1.2c0.01,0.41,0.01,0.87,0.01,1.38
			c0.01,0.48,0.03,0.94,0.06,1.37c0.02,0.44,0.1,0.76,0.24,0.97c0.06,0.07,0.18,0.15,0.37,0.22c0.18,0.08,0.4,0.14,0.66,0.19
			c0.26,0.05,0.54,0.1,0.85,0.14c0.3,0.04,0.61,0.06,0.92,0.06c0.12,0,0.32,0,0.58-0.01C118.36,93.54,118.66,93.52,118.98,93.5
			 M103.54,96.94c8.26,0.34,15.86,3.18,22,7.81c0.01-0.02,0.02-0.05,0.02-0.06h4.88v0.23c-0.63,0.01-1.1,0.14-1.43,0.38
			c-0.33,0.24-0.55,0.52-0.68,0.85c-0.06,0.18-0.11,0.46-0.14,0.78c2.44,2.2,4.58,4.71,6.39,7.45c0-0.12,0-0.24,0-0.36v-1.3v-4.38
			c0-0.27,0-0.55-0.01-0.83c-0.01-0.28-0.02-0.55-0.05-0.81c-0.02-0.25-0.06-0.48-0.11-0.69c-0.05-0.2-0.13-0.35-0.22-0.44
			c-0.23-0.24-0.47-0.39-0.73-0.46s-0.59-0.13-1.01-0.19v-0.23h12.63l1.56,3.71l-0.23,0.11c-1.24-1.51-2.4-2.53-3.48-3.06
			c-0.26-0.12-0.74-0.23-1.44-0.31c-0.7-0.09-1.56-0.14-2.56-0.14c-0.32,0-0.65,0.01-1,0.03c-0.34,0.02-0.59,0.05-0.74,0.08
			c-0.03,0.24-0.06,0.74-0.08,1.48c-0.02,0.75-0.03,1.62-0.03,2.61v1.44c0,0.39,0,0.71,0.01,0.96c0.01,0.25,0.01,0.44,0.01,0.57
			v0.25h0.46c0.23,0,0.49-0.01,0.79-0.02c0.3-0.01,0.59-0.03,0.89-0.06c0.3-0.02,0.55-0.06,0.74-0.1c0.46-0.1,0.84-0.25,1.14-0.43
			c0.31-0.18,0.55-0.4,0.74-0.65c0.19-0.25,0.34-0.55,0.46-0.89c0.11-0.34,0.22-0.72,0.31-1.14h0.27v7.08h-0.27
			c-0.12-0.48-0.31-0.97-0.56-1.48c-0.25-0.51-0.51-0.89-0.79-1.15c-0.24-0.21-0.54-0.38-0.88-0.52c-0.34-0.13-0.74-0.22-1.2-0.25
			c-0.23-0.01-0.42-0.03-0.57-0.03c-0.15-0.01-0.31-0.01-0.46-0.01h-0.46h-0.59c-0.03,0.21-0.05,0.52-0.05,0.92v1.26v0.67v0.76
			c0,0.24,0,0.47,0.01,0.69c0.01,0.22,0.01,0.4,0.01,0.55c0.01,0.48,0.04,0.93,0.08,1.36c0,0.01,0,0.02,0,0.03
			c0.18,0.37,0.35,0.75,0.52,1.13c0.18,0.1,0.4,0.19,0.72,0.25c0.52,0.09,1.08,0.13,1.69,0.13c0.26,0,0.59-0.01,1-0.02
			c0.4-0.01,0.83-0.05,1.27-0.11c0.49-0.06,0.94-0.18,1.35-0.35c0.41-0.17,0.81-0.42,1.19-0.73c0.38-0.31,0.75-0.7,1.11-1.16
			c0.36-0.46,0.73-1.01,1.11-1.65l0.25,0.07l-1.14,4.29H138c1.78,4.38,2.78,9.16,2.78,14.17c0,21.08-17.4,38.17-38.86,38.17
			c-21.46,0-38.86-17.09-38.86-38.17c0-0.36,0.02-0.71,0.03-1.07c-17.74-2.18-31.47-16.92-31.47-34.81c0-19.38,16.12-35.1,36-35.1
			C86.73,64.07,102.36,78.59,103.54,96.94 M52.3,51.36c0,2.5-2.06,4.52-4.6,4.52c-2.54,0-4.6-2.02-4.6-4.52
			c0-2.5,2.06-4.52,4.6-4.52C50.24,46.83,52.3,48.86,52.3,51.36 M183.72,120.65c0.38-0.06,0.74-0.16,1.06-0.29
			c0.33-0.13,0.6-0.32,0.81-0.56c0.08-0.09,0.14-0.22,0.18-0.39c0.05-0.17,0.09-0.37,0.13-0.6c0.04-0.23,0.06-0.46,0.08-0.71
			c0.01-0.25,0.02-0.49,0.02-0.73c0-0.21,0-0.5,0.01-0.85c0.01-0.36,0.01-0.75,0.02-1.18c0.01-0.43,0.01-0.86,0.01-1.32v-1.3v-4.38
			c0-0.27,0-0.55-0.01-0.83c-0.01-0.28-0.02-0.55-0.05-0.81s-0.06-0.48-0.11-0.69c-0.05-0.2-0.13-0.35-0.22-0.44
			c-0.23-0.24-0.47-0.39-0.73-0.46c-0.26-0.07-0.59-0.13-1.01-0.19v-0.23h12.63l1.56,3.71l-0.23,0.11
			c-1.24-1.51-2.39-2.53-3.48-3.06c-0.26-0.12-0.74-0.23-1.44-0.31c-0.7-0.09-1.56-0.14-2.56-0.14c-0.32,0-0.65,0.01-1,0.03
			c-0.34,0.02-0.59,0.05-0.74,0.08c-0.03,0.24-0.06,0.74-0.08,1.48c-0.02,0.75-0.03,1.62-0.03,2.61v1.44c0,0.39,0,0.71,0.01,0.96
			c0.01,0.25,0.01,0.44,0.01,0.57v0.25h0.46c0.23,0,0.49-0.01,0.79-0.02c0.3-0.01,0.6-0.03,0.89-0.06c0.3-0.02,0.54-0.06,0.74-0.1
			c0.46-0.1,0.84-0.25,1.14-0.43c0.3-0.18,0.55-0.4,0.74-0.65c0.19-0.25,0.34-0.55,0.46-0.89c0.11-0.34,0.22-0.72,0.31-1.14h0.27
			v7.08h-0.27c-0.12-0.48-0.31-0.97-0.56-1.48c-0.25-0.51-0.52-0.89-0.79-1.15c-0.24-0.21-0.54-0.38-0.88-0.52
			c-0.34-0.13-0.74-0.22-1.2-0.25c-0.23-0.01-0.42-0.03-0.57-0.03c-0.15-0.01-0.31-0.01-0.46-0.01h-0.46h-0.59
			c-0.03,0.21-0.05,0.52-0.05,0.92v1.26v0.67v0.76c0,0.24,0,0.47,0.01,0.69c0.01,0.22,0.01,0.4,0.01,0.55
			c0.01,0.48,0.04,0.93,0.08,1.36c0.04,0.43,0.13,0.75,0.26,0.96c0.14,0.21,0.47,0.36,0.98,0.45c0.52,0.09,1.08,0.13,1.69,0.13
			c0.26,0,0.59-0.01,1-0.02c0.4-0.01,0.83-0.05,1.27-0.11c0.49-0.06,0.94-0.18,1.35-0.35c0.41-0.17,0.81-0.42,1.19-0.73
			c0.38-0.31,0.75-0.7,1.11-1.16c0.36-0.46,0.73-1.01,1.11-1.65l0.25,0.07l-1.14,4.29h-14.01V120.65z M211.32,106.06
			c0-0.24-0.06-0.43-0.18-0.56c-0.12-0.14-0.28-0.24-0.47-0.31c-0.19-0.07-0.4-0.13-0.63-0.17c-0.23-0.04-0.45-0.07-0.66-0.1v-0.23
			h5.29v0.23c-0.43,0.06-0.79,0.17-1.1,0.31c-0.31,0.15-0.59,0.34-0.85,0.58c-0.26,0.24-0.51,0.52-0.74,0.85
			c-0.24,0.33-0.49,0.71-0.77,1.12c-0.18,0.28-0.44,0.67-0.77,1.16c-0.33,0.49-0.66,0.99-1.01,1.52c-0.34,0.52-0.68,1.03-1,1.51
			c-0.32,0.48-0.57,0.85-0.76,1.12v4.52c0,0.44,0.01,0.86,0.03,1.27c0.02,0.41,0.1,0.7,0.22,0.87c0.23,0.33,0.53,0.55,0.89,0.65
			c0.37,0.1,0.72,0.19,1.05,0.25v0.22h-7.05v-0.22c0.4-0.04,0.74-0.12,1.04-0.21c0.3-0.1,0.61-0.33,0.95-0.71
			c0.08-0.07,0.13-0.2,0.17-0.38c0.04-0.18,0.07-0.38,0.09-0.61c0.02-0.22,0.04-0.46,0.05-0.72c0.01-0.25,0.01-0.5,0.01-0.74
			c0.01-0.42,0.03-0.92,0.03-1.5c0.01-0.58,0.01-1.28,0.01-2.1c-0.03-0.04-0.12-0.19-0.27-0.43c-0.15-0.24-0.34-0.54-0.56-0.89
			c-0.22-0.35-0.47-0.75-0.73-1.18c-0.27-0.44-0.53-0.86-0.79-1.27c-0.26-0.41-0.5-0.8-0.73-1.16c-0.23-0.36-0.42-0.65-0.57-0.88
			c-0.29-0.43-0.55-0.83-0.79-1.19c-0.24-0.36-0.48-0.67-0.72-0.92c-0.24-0.25-0.48-0.46-0.72-0.61c-0.24-0.15-0.51-0.23-0.81-0.25
			v-0.23h6.93v0.23c-0.23,0.01-0.46,0.04-0.69,0.07c-0.23,0.03-0.44,0.08-0.64,0.15c-0.2,0.07-0.36,0.16-0.48,0.27
			c-0.12,0.11-0.18,0.27-0.18,0.46c0,0.2,0.11,0.49,0.33,0.89c0.22,0.4,0.45,0.8,0.7,1.2c0.17,0.27,0.37,0.6,0.59,0.98
			c0.23,0.38,0.48,0.79,0.75,1.21c0.27,0.43,0.55,0.87,0.84,1.32c0.28,0.45,0.55,0.88,0.79,1.28c0.2-0.28,0.44-0.65,0.73-1.09
			c0.29-0.44,0.58-0.89,0.88-1.35c0.3-0.46,0.58-0.9,0.85-1.32c0.27-0.42,0.47-0.75,0.61-0.99c0.08-0.12,0.16-0.26,0.25-0.42
			c0.09-0.16,0.18-0.32,0.26-0.49c0.08-0.17,0.16-0.35,0.22-0.53C211.29,106.37,211.32,106.21,211.32,106.06 M185.04,140.79
			c0-8.31,6.86-15.05,15.32-15.05s15.32,6.74,15.32,15.05c0,8.31-6.86,15.05-15.32,15.05S185.04,149.1,185.04,140.79 M314.27,26.36
			H-22.09v156.37h336.36V26.36z"/>
	</g>
</g>
</svg>
