<?xml version="1.0" encoding="utf-8"?>
<!-- Generator: Adobe Illustrator 25.0.1, SVG Export Plug-In . SVG Version: 6.00 Build 0)  -->
<svg version="1.1" id="Calque_1" xmlns="http://www.w3.org/2000/svg" xmlns:xlink="http://www.w3.org/1999/xlink" x="0px" y="0px"
	 viewBox="0 0 297 210" style="enable-background:new 0 0 297 210;" xml:space="preserve">
<style type="text/css">
	.st0{clip-path:url(#SVGID_2_);}
	.st1{opacity:0.31;clip-path:url(#SVGID_4_);}
	.st2{clip-path:url(#SVGID_6_);fill:#E40621;}
	.st3{opacity:0.31;clip-path:url(#SVGID_8_);}
	.st4{clip-path:url(#SVGID_10_);fill:#E40621;}
	.st5{clip-path:url(#SVGID_12_);}
	.st6{clip-path:url(#SVGID_14_);}
	.st7{clip-path:url(#SVGID_16_);}
	.st8{clip-path:url(#SVGID_18_);}
	.st9{clip-path:url(#SVGID_20_);}
	.st10{clip-path:url(#SVGID_22_);}
	.st11{clip-path:url(#SVGID_24_);}
	.st12{clip-path:url(#SVGID_26_);}
	.st13{clip-path:url(#SVGID_28_);}
	.st14{clip-path:url(#SVGID_30_);}
	.st15{clip-path:url(#SVGID_32_);}
	.st16{clip-path:url(#SVGID_34_);}
	.st17{clip-path:url(#SVGID_36_);fill:none;stroke:#000000;stroke-width:2;stroke-miterlimit:10;}
	.st18{clip-path:url(#SVGID_38_);fill:#E40621;}
	.st19{clip-path:url(#SVGID_40_);fill:#E40621;}
	.st20{clip-path:url(#SVGID_42_);}
	.st21{clip-path:url(#SVGID_44_);}
	.st22{clip-path:url(#SVGID_46_);fill:#E40621;}
</style>
<g>
	<g>
		<g>
			<g>
				<defs>
					<rect id="SVGID_1_" x="28.7" y="34.6" width="243.6" height="140.9"/>
				</defs>
				<clipPath id="SVGID_2_">
					<use xlink:href="#SVGID_1_"  style="overflow:visible;"/>
				</clipPath>
				<g class="st0">
					<g>
						<g>
							<g>
								<defs>
									<rect id="SVGID_3_" x="28.7" y="34.6" width="243.6" height="140.9"/>
								</defs>
								<clipPath id="SVGID_4_">
									<use xlink:href="#SVGID_3_"  style="overflow:visible;"/>
								</clipPath>
								<g class="st1">
									<g>
										<g>
											<g>
												<g>
													<defs>
														<rect id="SVGID_5_" x="198.4" y="38.7" width="81.1" height="72.9"/>
													</defs>
													<clipPath id="SVGID_6_">
														<use xlink:href="#SVGID_5_"  style="overflow:visible;"/>
													</clipPath>
													<path class="st2" d="M239,110.8c18.4,0,33.3-14.9,33.3-33.2S257.4,44.3,239,44.3s-33.3,14.9-33.3,33.2
														S220.6,110.8,239,110.8"/>
												</g>
											</g>
										</g>
									</g>
								</g>
							</g>
						</g>
					</g>
					<g>
						<g>
							<g>
								<defs>
									<rect id="SVGID_7_" x="28.7" y="34.6" width="243.6" height="140.9"/>
								</defs>
								<clipPath id="SVGID_8_">
									<use xlink:href="#SVGID_7_"  style="overflow:visible;"/>
								</clipPath>
								<g class="st3">
									<g>
										<g>
											<g>
												<g>
													<defs>
														<rect id="SVGID_9_" x="54" y="91.2" width="93.1" height="85"/>
													</defs>
													<clipPath id="SVGID_10_">
														<use xlink:href="#SVGID_9_"  style="overflow:visible;"/>
													</clipPath>
													<path class="st4" d="M100.6,175.4c21.7,0,39.3-17.6,39.3-39.3s-17.6-39.3-39.3-39.3s-39.3,17.6-39.3,39.3
														C61.3,157.9,78.9,175.4,100.6,175.4"/>
												</g>
											</g>
										</g>
									</g>
								</g>
							</g>
						</g>
					</g>
					<g>
						<g>
							<g>
								<defs>
									<rect id="SVGID_11_" x="28.7" y="34.6" width="243.6" height="140.9"/>
								</defs>
								<clipPath id="SVGID_12_">
									<use xlink:href="#SVGID_11_"  style="overflow:visible;"/>
								</clipPath>
								<path class="st5" d="M65.5,103.8L65.5,103.8c-0.2,1.4-0.3,7.9-1.9,10.9s-4.7,2.4-5.8,3h2.1h5.6V103.8z"/>
							</g>
						</g>
					</g>
				</g>
			</g>
		</g>
	</g>
	<g>
		<g>
			<g>
				<defs>
					<rect id="SVGID_13_" x="28.7" y="34.6" width="243.6" height="140.9"/>
				</defs>
				<clipPath id="SVGID_14_">
					<use xlink:href="#SVGID_13_"  style="overflow:visible;"/>
				</clipPath>
				<polygon class="st6" points="65.4,93.6 66.6,95.6 68.7,96.7 66.6,97.9 65.6,100 64.4,98 62.2,96.9 64.3,95.7 				"/>
			</g>
		</g>
	</g>
	<g>
		<g>
			<g>
				<defs>
					<rect id="SVGID_15_" x="28.7" y="34.6" width="243.6" height="140.9"/>
				</defs>
				<clipPath id="SVGID_16_">
					<use xlink:href="#SVGID_15_"  style="overflow:visible;"/>
				</clipPath>
				<polygon class="st7" points="62.4,80.7 68.5,80.7 79.9,94.3 77.6,98.9 				"/>
			</g>
		</g>
	</g>
	<g>
		<g>
			<g>
				<defs>
					<rect id="SVGID_17_" x="28.7" y="34.6" width="243.6" height="140.9"/>
				</defs>
				<clipPath id="SVGID_18_">
					<use xlink:href="#SVGID_17_"  style="overflow:visible;"/>
				</clipPath>
				<g class="st8">
					<g>
						<g>
							<g>
								<defs>
									<rect id="SVGID_19_" x="28.7" y="34.6" width="243.6" height="140.9"/>
								</defs>
								<clipPath id="SVGID_20_">
									<use xlink:href="#SVGID_19_"  style="overflow:visible;"/>
								</clipPath>
								<path class="st9" d="M52.2,80.7l-1.5,0.4c-1,0.2-1.7,1-2,1.9l-0.4,1.2v33.5h-5.5V84.4l-0.3-1.3c-0.2-1-1-1.7-1.9-2l-1.2-0.4
									h9l0,0H52.2z"/>
							</g>
						</g>
					</g>
					<g>
						<g>
							<g>
								<defs>
									<rect id="SVGID_21_" x="28.7" y="34.6" width="243.6" height="140.9"/>
								</defs>
								<clipPath id="SVGID_22_">
									<use xlink:href="#SVGID_21_"  style="overflow:visible;"/>
								</clipPath>
								<path class="st10" d="M42.8,114.3c0,0.1,0,0.4,0,0.7c0,1,0,2.7,0,2.7h-3.9c0.8-0.2,1.6-0.3,2.3-0.7c0.5-0.3,0.8-0.7,1-1.2
									C42.5,115.3,42.6,114.8,42.8,114.3"/>
							</g>
						</g>
					</g>
					<g>
						<g>
							<g>
								<defs>
									<rect id="SVGID_23_" x="28.7" y="34.6" width="243.6" height="140.9"/>
								</defs>
								<clipPath id="SVGID_24_">
									<use xlink:href="#SVGID_23_"  style="overflow:visible;"/>
								</clipPath>
								<path class="st11" d="M51.8,117.7h-3.5v-3.6c0-0.1,0-0.2,0-0.3c0.2,0.9,0.4,2,1.1,2.7c0.3,0.4,0.8,0.6,1.2,0.8L51.8,117.7z"
									/>
							</g>
						</g>
					</g>
					<g>
						<g>
							<g>
								<defs>
									<rect id="SVGID_25_" x="28.7" y="34.6" width="243.6" height="140.9"/>
								</defs>
								<clipPath id="SVGID_26_">
									<use xlink:href="#SVGID_25_"  style="overflow:visible;"/>
								</clipPath>
								<path class="st12" d="M61.3,80.7L62,81c0.6,0.4,0.8,0.5,1.3,1.1l2.7,2.8l-3.4-4.1L61.3,80.7z"/>
							</g>
						</g>
					</g>
				</g>
			</g>
		</g>
	</g>
	<g>
		<g>
			<g>
				<defs>
					<rect id="SVGID_27_" x="28.7" y="34.6" width="243.6" height="140.9"/>
				</defs>
				<clipPath id="SVGID_28_">
					<use xlink:href="#SVGID_27_"  style="overflow:visible;"/>
				</clipPath>
				<rect x="84.6" y="80.7" class="st13" width="5.5" height="37"/>
			</g>
		</g>
	</g>
	<g>
		<g>
			<g>
				<defs>
					<rect id="SVGID_29_" x="28.7" y="34.6" width="243.6" height="140.9"/>
				</defs>
				<clipPath id="SVGID_30_">
					<use xlink:href="#SVGID_29_"  style="overflow:visible;"/>
				</clipPath>
				<g class="st14">
					<g>
						<g>
							<g>
								<defs>
									<rect id="SVGID_31_" x="28.7" y="34.6" width="243.6" height="140.9"/>
								</defs>
								<clipPath id="SVGID_32_">
									<use xlink:href="#SVGID_31_"  style="overflow:visible;"/>
								</clipPath>
								<path class="st15" d="M93.6,117.6l-1.2-0.4c-0.5-0.1-0.9-0.4-1.2-0.8c-0.7-0.7-0.8-1.8-1.1-2.7c0,0.1,0,0.2,0,0.3v0.4v1v1.9
									v0.4h1.8h1.7V117.6z"/>
							</g>
						</g>
					</g>
					<g>
						<g>
							<g>
								<defs>
									<rect id="SVGID_33_" x="28.7" y="34.6" width="243.6" height="140.9"/>
								</defs>
								<clipPath id="SVGID_34_">
									<use xlink:href="#SVGID_33_"  style="overflow:visible;"/>
								</clipPath>
								<path class="st16" d="M90.1,84.2l0.4-1.2c0.3-1,1.1-1.7,2-1.9l1.5-0.4h-3.9v1.8V84.2z"/>
							</g>
						</g>
					</g>
					<g>
						<g>
							<g>
								<defs>
									<rect id="SVGID_35_" x="28.7" y="34.6" width="243.6" height="140.9"/>
								</defs>
								<clipPath id="SVGID_36_">
									<use xlink:href="#SVGID_35_"  style="overflow:visible;"/>
								</clipPath>
								<ellipse class="st17" cx="65.9" cy="99.2" rx="36.4" ry="36.1"/>
							</g>
						</g>
					</g>
					<g>
						<g>
							<g>
								<defs>
									<rect id="SVGID_37_" x="28.7" y="34.6" width="243.6" height="140.9"/>
								</defs>
								<clipPath id="SVGID_38_">
									<use xlink:href="#SVGID_37_"  style="overflow:visible;"/>
								</clipPath>
								<path class="st18" d="M200.1,157.6c8.6,0,15.5-6.9,15.5-15.5s-6.9-15.5-15.5-15.5s-15.5,6.9-15.5,15.5
									C184.6,150.6,191.5,157.6,200.1,157.6"/>
							</g>
						</g>
					</g>
					<g>
						<g>
							<g>
								<defs>
									<rect id="SVGID_39_" x="28.7" y="34.6" width="243.6" height="140.9"/>
								</defs>
								<clipPath id="SVGID_40_">
									<use xlink:href="#SVGID_39_"  style="overflow:visible;"/>
								</clipPath>
								<path class="st19" d="M134.1,65.5c8.6,0,15.5-6.9,15.5-15.5s-6.9-15.5-15.5-15.5s-15.5,6.9-15.5,15.5
									C118.7,58.6,125.6,65.5,134.1,65.5"/>
							</g>
						</g>
					</g>
					<g>
						<g>
							<g>
								<defs>
									<rect id="SVGID_41_" x="28.7" y="34.6" width="243.6" height="140.9"/>
								</defs>
								<clipPath id="SVGID_42_">
									<use xlink:href="#SVGID_41_"  style="overflow:visible;"/>
								</clipPath>
								<path class="st20" d="M213.4,105.5c-0.3,0.2-0.6,0.4-0.9,0.6c-0.3,0.2-0.5,0.5-0.8,0.9c-0.2,0.3-0.5,0.7-0.8,1.2
									c-0.2,0.3-0.4,0.7-0.8,1.2c-0.3,0.5-0.7,1-1,1.6c-0.3,0.5-0.7,1.1-1,1.5c-0.3,0.5-0.6,0.9-0.8,1.2v4.6c0,0.4,0,0.9,0,1.3
									s0.1,0.7,0.2,0.9c0.2,0.3,0.5,0.6,0.9,0.7s0.7,0.2,1.1,0.3v0.2h-7.1v-0.2c0.4,0,0.8-0.1,1.1-0.2s0.6-0.3,1-0.7
									c0.1-0.1,0.1-0.2,0.2-0.4c0-0.2,0.1-0.4,0.1-0.6s0-0.5,0-0.7c0-0.3,0-0.5,0-0.8c0-0.4,0-0.9,0-1.5s0-1.3,0-2.2
									c0,0-0.1-0.2-0.3-0.4c-0.2-0.2-0.3-0.6-0.6-0.9c-0.2-0.4-0.5-0.8-0.7-1.2c-0.3-0.4-0.5-0.9-0.8-1.3s-0.5-0.8-0.7-1.2
									c-0.2-0.4-0.4-0.7-0.6-0.9c-0.3-0.4-0.6-0.9-0.8-1.2c-0.2-0.4-0.5-0.7-0.7-0.9c-0.2-0.3-0.5-0.5-0.7-0.6
									c-0.2-0.2-0.5-0.2-0.8-0.3v-0.2h7v0.2c-0.2,0-0.5,0-0.7,0.1c-0.2,0-0.4,0.1-0.6,0.2c-0.2,0.1-0.4,0.2-0.5,0.3
									c-0.1,0.1-0.2,0.3-0.2,0.5s0.1,0.5,0.3,0.9s0.5,0.8,0.7,1.2c0.2,0.3,0.4,0.6,0.6,1c0.2,0.4,0.5,0.8,0.8,1.2s0.6,0.9,0.8,1.4
									c0.3,0.5,0.6,0.9,0.8,1.3c0.2-0.3,0.4-0.7,0.7-1.1c0.3-0.5,0.6-0.9,0.9-1.4c0.3-0.5,0.6-0.9,0.9-1.4c0.3-0.4,0.5-0.8,0.6-1
									c0.1-0.1,0.2-0.3,0.3-0.4c0.1-0.2,0.2-0.3,0.3-0.5s0.2-0.4,0.2-0.5c0.1-0.2,0.1-0.4,0.1-0.5c0-0.2-0.1-0.4-0.2-0.6
									c-0.1-0.1-0.3-0.2-0.5-0.3c-0.2-0.1-0.4-0.1-0.6-0.2c-0.2,0-0.5-0.1-0.7-0.1v-0.2h5.3v0.2
									C214.1,105.2,213.7,105.3,213.4,105.5 M197.4,121.6h-14.2v-0.2c0.4-0.1,0.7-0.2,1.1-0.3c0.3-0.1,0.6-0.3,0.8-0.6
									c0.1-0.1,0.1-0.2,0.2-0.4c0-0.2,0.1-0.4,0.1-0.6s0.1-0.5,0.1-0.7c0-0.3,0-0.5,0-0.8c0-0.2,0-0.5,0-0.9s0-0.8,0-1.2
									c0-0.4,0-0.9,0-1.4v-1.3v-4.5c0-0.3,0-0.6,0-0.9s0-0.6,0-0.8c0-0.3-0.1-0.5-0.1-0.7c-0.1-0.2-0.1-0.4-0.2-0.5
									c-0.2-0.2-0.5-0.4-0.7-0.5c-0.3-0.1-0.6-0.1-1-0.2v-0.2h12.8l1.6,3.8l-0.2,0.1c-1.2-1.6-2.4-2.6-3.5-3.1
									c-0.3-0.1-0.7-0.2-1.5-0.3c-0.7-0.1-1.6-0.1-2.6-0.1c-0.3,0-0.7,0-1,0s-0.6,0-0.8,0.1c0,0.2-0.1,0.8-0.1,1.5
									c0,0.8,0,1.7,0,2.7v1.5c0,0.4,0,0.7,0,1s0,0.5,0,0.6v0.3h0.5c0.2,0,0.5,0,0.8,0s0.6,0,0.9-0.1c0.3,0,0.6-0.1,0.8-0.1
									c0.5-0.1,0.8-0.3,1.2-0.4c0.3-0.2,0.6-0.4,0.8-0.7c0.2-0.3,0.3-0.6,0.5-0.9c0.1-0.3,0.2-0.7,0.3-1.2h0.3v7.3H194
									c-0.1-0.5-0.3-1-0.6-1.5s-0.5-0.9-0.8-1.2c-0.2-0.2-0.5-0.4-0.9-0.5c-0.3-0.1-0.8-0.2-1.2-0.3c-0.2,0-0.4,0-0.6,0
									c-0.2,0-0.3,0-0.5,0h-0.5h-0.6c0,0.2,0,0.5,0,0.9v1.3v0.7v0.8c0,0.2,0,0.5,0,0.7s0,0.4,0,0.6c0,0.5,0,1,0.1,1.4
									c0,0.4,0.1,0.8,0.3,1c0.1,0.2,0.5,0.4,1,0.5s1.1,0.1,1.7,0.1c0.3,0,0.6,0,1,0s0.8-0.1,1.3-0.1c0.5-0.1,0.9-0.2,1.4-0.4
									c0.4-0.2,0.8-0.4,1.2-0.8c0.4-0.3,0.8-0.7,1.1-1.2c0.4-0.5,0.7-1,1.1-1.7l0.3,0.1L197.4,121.6z M180.9,110.3
									c-0.2-0.7-0.5-1.4-0.9-2.1c-0.4-0.6-0.9-1.2-1.4-1.7s-1.2-0.9-1.9-1.1c-0.7-0.3-1.4-0.4-2.2-0.4c-1.1,0-2,0.2-2.8,0.7
									s-1.5,1.1-2.1,1.9s-1,1.7-1.3,2.7s-0.5,2-0.5,3.1s0.2,2.2,0.5,3.1c0.3,1,0.8,1.8,1.4,2.5c0.6,0.7,1.3,1.3,2.1,1.7
									c0.8,0.4,1.8,0.6,2.8,0.6c0.8,0,1.6-0.1,2.3-0.4s1.3-0.7,1.9-1.2c0.5-0.5,1-1,1.4-1.7c0.4-0.6,0.6-1.3,0.8-1.9h0.3l-0.1,5.1
									h-0.3c-0.2-0.3-0.4-0.5-0.6-0.7c-0.2-0.2-0.3-0.3-0.4-0.3c0,0-0.2,0.1-0.4,0.2c-0.2,0.2-0.6,0.3-1.1,0.5s-1,0.4-1.7,0.5
									s-1.4,0.2-2.3,0.2c-1.4,0-2.7-0.2-3.9-0.6s-2.1-1-2.9-1.7c-0.8-0.7-1.4-1.6-1.9-2.7c-0.4-1-0.6-2.2-0.6-3.4
									c0-0.3,0-0.6,0.1-0.9c0-0.4,0.1-0.7,0.2-1.1c0.1-0.4,0.2-0.8,0.4-1.3c0.2-0.4,0.4-0.9,0.7-1.3c0.3-0.5,0.7-1,1.2-1.5
									s1-0.9,1.7-1.3c0.6-0.4,1.4-0.7,2.2-0.9c0.8-0.2,1.7-0.3,2.8-0.3c0.9,0,1.7,0.1,2.4,0.3c0.7,0.2,1.3,0.4,1.7,0.6
									c0.5,0.2,0.8,0.4,1.1,0.6c0.2,0.2,0.4,0.3,0.4,0.3s0.1,0,0.2-0.1c0.1-0.1,0.2-0.2,0.3-0.3c0.1-0.1,0.2-0.2,0.3-0.3
									c0.1-0.1,0.2-0.3,0.3-0.4h0.3v5.2L180.9,110.3z M158.1,107.2c-0.4-0.6-0.9-1.1-1.7-1.4c-0.4-0.2-0.8-0.3-1.2-0.4
									s-0.8-0.1-1.3-0.1c-0.3,0-0.6,0-0.8,0s-0.4,0-0.5,0c0,0.1,0,0.2,0,0.2c0,0.1,0,0.2,0,0.3c0,0.1,0,0.3,0,0.5s0,0.5,0,0.8
									c0,0.5,0,1.1,0,1.8c0,0.7,0,1.3,0,2v1.7v0.9c0.6,0,1.2,0,1.8-0.1c0.5-0.1,1.1-0.2,1.6-0.3c0.5-0.2,0.9-0.4,1.3-0.6
									c0.4-0.3,0.6-0.6,0.9-0.9c0.2-0.3,0.4-0.7,0.5-1.1s0.2-0.8,0.2-1.2C158.7,108.5,158.5,107.8,158.1,107.2 M160.4,121.6
									c-0.1-0.1-0.2-0.2-0.3-0.3c-0.1-0.1-0.1-0.2-0.2-0.2c-0.1-0.1-0.2-0.2-0.3-0.4c-0.1-0.2-0.3-0.4-0.5-0.8
									c-0.3-0.4-0.6-0.8-0.8-1.2c-0.2-0.3-0.5-0.7-0.7-1s-0.5-0.7-0.8-1s-0.6-0.7-1-1.2c-0.3-0.4-0.6-0.7-1-1s-0.7-0.5-1.1-0.6
									c-0.3-0.1-0.5-0.1-0.7-0.1c-0.1,0-0.3,0-0.5,0v2.6c0,0.7,0,1.4,0,1.9s0,0.9,0,1.3s0.1,0.6,0.3,0.9c0.1,0.2,0.4,0.4,0.7,0.6
									c0.4,0.2,0.8,0.3,1.5,0.4v0.2h-7.4v-0.2c0.4-0.1,0.8-0.2,1.1-0.3c0.4-0.1,0.6-0.3,0.8-0.6c0.1-0.1,0.1-0.2,0.2-0.4
									c0-0.2,0.1-0.4,0.1-0.6s0-0.5,0.1-0.7c0-0.3,0-0.5,0-0.8c0-0.2,0-0.5,0-0.9s0-0.8,0-1.2c0-0.4,0-0.9,0-1.4v-1.3v-4.5
									c0-0.3,0-0.6,0-0.8c0-0.3,0-0.6,0-0.8c0-0.3-0.1-0.5-0.1-0.7c-0.1-0.2-0.1-0.4-0.2-0.5c-0.2-0.2-0.5-0.4-0.8-0.5
									s-0.6-0.2-1.1-0.2v-0.2h0.9c0.5,0,1.1,0,1.8,0s1.3,0,2,0h1.6c1,0,2,0,2.8,0.1s1.5,0.3,2.2,0.6c0.7,0.4,1.2,0.8,1.6,1.4
									c0.4,0.6,0.6,1.4,0.6,2.3c0,0.6-0.1,1.1-0.3,1.5c-0.2,0.5-0.5,0.9-0.8,1.2c-0.3,0.3-0.8,0.6-1.2,0.9
									c-0.5,0.2-0.9,0.5-1.5,0.6v0.1c0.3,0.1,0.5,0.3,0.8,0.6c0.2,0.3,0.5,0.6,0.7,0.9c0.4,0.6,0.8,1.2,1.3,1.9
									c0.5,0.7,0.9,1.3,1.3,1.8c0.6,0.8,1.1,1.4,1.7,1.8c0.5,0.4,1.2,0.6,1.9,0.7v0.2h-4.7L160.4,121.6L160.4,121.6z M145.4,121.6
									h-14.2v-0.2c0.4-0.1,0.7-0.2,1.1-0.3c0.3-0.1,0.6-0.3,0.8-0.6c0.1-0.1,0.1-0.2,0.2-0.4c0-0.2,0.1-0.4,0.1-0.6
									s0.1-0.5,0.1-0.7c0-0.3,0-0.5,0-0.8c0-0.2,0-0.5,0-0.9s0-0.8,0-1.2c0-0.4,0-0.9,0-1.4v-1.3v-4.5c0-0.3,0-0.6,0-0.9
									s0-0.6,0-0.8c0-0.3-0.1-0.5-0.1-0.7c-0.1-0.2-0.1-0.4-0.2-0.5c-0.2-0.2-0.5-0.4-0.7-0.5c-0.3-0.1-0.6-0.1-1-0.2v-0.2h12.8
									l1.6,3.8l-0.2,0.1c-1.2-1.6-2.4-2.6-3.5-3.1c-0.3-0.1-0.7-0.2-1.5-0.3c-0.7-0.1-1.6-0.1-2.6-0.1c-0.3,0-0.7,0-1,0
									s-0.6,0-0.8,0.1c0,0.2-0.1,0.8-0.1,1.5c0,0.8,0,1.7,0,2.7v1.5c0,0.4,0,0.7,0,1s0,0.5,0,0.6v0.3h0.5c0.2,0,0.5,0,0.8,0
									s0.6,0,0.9-0.1c0.3,0,0.6-0.1,0.8-0.1c0.5-0.1,0.8-0.3,1.2-0.4s0.6-0.4,0.8-0.7c0.2-0.3,0.3-0.6,0.5-0.9
									c0.1-0.3,0.2-0.7,0.3-1.2h0.3v7.3H142c-0.1-0.5-0.3-1-0.6-1.5s-0.5-0.9-0.8-1.2c-0.2-0.2-0.5-0.4-0.9-0.5
									c-0.3-0.1-0.8-0.2-1.2-0.3c-0.2,0-0.4,0-0.6,0c-0.2,0-0.3,0-0.5,0h-0.5h-0.6c0,0.2,0,0.5,0,0.9v1.3v0.7v0.8
									c0,0.2,0,0.5,0,0.7s0,0.4,0,0.6c0,0.5,0,1,0.1,1.4c0,0.4,0.1,0.8,0.3,1c0.1,0.2,0.5,0.4,1,0.5s1.1,0.1,1.7,0.1
									c0.3,0,0.6,0,1,0s0.8-0.1,1.3-0.1c0.5-0.1,0.9-0.2,1.4-0.4c0.4-0.2,0.8-0.4,1.2-0.8c0.4-0.3,0.8-0.7,1.1-1.2
									c0.4-0.5,0.7-1,1.1-1.7l0.3,0.1L145.4,121.6z M121.6,121.6v-0.3c0.7,0,1.2-0.2,1.7-0.4c0.4-0.2,0.7-0.5,0.9-0.9
									c0.1-0.2,0.2-0.5,0.2-0.8s0.1-0.6,0.1-0.9c0-1,0-2,0-2.9v-2.9V106c-0.5,1.1-1,2.2-1.4,3.1c-0.4,1-0.8,1.9-1.3,2.8
									c-0.4,0.9-0.8,1.8-1.3,2.8c-0.4,0.9-0.9,2-1.4,3.1c-0.1,0.2-0.2,0.4-0.3,0.7c-0.1,0.3-0.3,0.7-0.4,1s-0.3,0.7-0.4,0.9
									c-0.1,0.3-0.2,0.5-0.2,0.6h-0.1c-0.5-1.1-1-2.3-1.5-3.4s-1-2.2-1.4-3.3c-0.5-1-0.9-2-1.3-2.9s-0.8-1.7-1.1-2.4
									c-0.3-0.7-0.6-1.3-0.8-1.8c-0.2-0.5-0.4-0.8-0.4-1c0,1,0,1.9,0,2.7c0,0.8,0,1.6,0,2.3c0,0.8,0,1.6,0,2.4v3
									c0,0.7,0,1.4,0.1,1.9c0,0.5,0.2,1,0.3,1.3c0.2,0.4,0.5,0.6,0.8,0.9c0.4,0.2,0.9,0.4,1.6,0.5v0.2h-6v-0.2
									c0.5-0.1,1-0.3,1.3-0.5s0.6-0.5,0.8-0.9c0.2-0.4,0.3-0.8,0.4-1.4c0.1-0.5,0.1-1.2,0.2-2c0-0.7,0.1-1.4,0.1-2.3s0-1.9,0-2.9
									v-1.1v-0.9v-0.9c0-0.3,0-0.7,0-1.1s-0.1-0.8-0.3-1.1c-0.2-0.3-0.4-0.5-0.6-0.6c-0.2-0.2-0.5-0.3-0.7-0.3
									c-0.3-0.1-0.5-0.1-0.7-0.1v-0.2h4.9l5.5,12.6c0.7-1.5,1.3-2.9,2-4.4c0.6-1.4,1.2-2.8,1.7-3.9c0.5-1.2,0.9-2.1,1.3-2.9
									c0.3-0.8,0.5-1.2,0.6-1.4h4.9v0.2c-0.6,0-1.1,0.1-1.4,0.4c-0.3,0.2-0.6,0.5-0.7,0.9c-0.1,0.3-0.2,0.7-0.2,1.2
									c0,0.6-0.1,1.1-0.1,1.6c0,0.7,0,1.5,0,2.2v2.1v2.5c0,0.8,0,1.7,0,2.6c0,0.3,0,0.6,0.1,0.9c0,0.3,0.1,0.5,0.2,0.7
									c0,0,0.1,0.1,0.2,0.2s0.2,0.2,0.4,0.4c0.2,0.1,0.4,0.2,0.7,0.3c0.3,0.1,0.6,0.2,1,0.2v0.2h-8L121.6,121.6L121.6,121.6z"/>
							</g>
						</g>
					</g>
					<g>
						<g>
							<g>
								<defs>
									<rect id="SVGID_43_" x="28.7" y="34.6" width="243.6" height="140.9"/>
								</defs>
								<clipPath id="SVGID_44_">
									<use xlink:href="#SVGID_43_"  style="overflow:visible;"/>
								</clipPath>
								<path class="st21" d="M246.9,81.5c-0.1-0.3-0.3-0.6-0.4-0.9c-0.2-0.3-0.3-0.6-0.5-0.8c-0.2-0.3-0.4-0.5-0.5-0.7
									c-0.2-0.2-0.3-0.4-0.4-0.5c-0.3-0.3-0.7-0.5-1.1-0.6c-0.4-0.1-0.9-0.2-1.4-0.2c-0.3,0-0.5,0-0.8,0c-0.2,0-0.4,0-0.6,0h-0.7
									h-0.9c0,0.4,0,0.9,0,1.6s0,1.4,0,2.1v2.2v1.8v5.1c0,0.4,0,0.9,0,1.3s0.1,0.7,0.2,0.9c0.2,0.3,0.6,0.6,1,0.7s0.8,0.2,1.1,0.3
									V94h-7.5v-0.2c0.4,0,0.8-0.1,1.2-0.2s0.7-0.4,1.1-0.8c0.1-0.1,0.1-0.2,0.2-0.4c0-0.2,0.1-0.4,0.1-0.6s0-0.5,0-0.7
									c0-0.3,0-0.5,0-0.8c0-0.2,0-0.5,0-0.9s0-0.7,0-1.2c0-0.4,0-0.9,0-1.3v-1.3v-7.7h-0.9h-0.7c-0.2,0-0.4,0-0.6,0
									c-0.2,0-0.5,0-0.8,0c-0.6,0-1.1,0.1-1.4,0.2c-0.4,0.1-0.7,0.3-1.1,0.6c-0.1,0.1-0.3,0.3-0.4,0.5c-0.2,0.2-0.3,0.5-0.5,0.7
									s-0.3,0.5-0.5,0.8s-0.3,0.6-0.4,0.9l-0.2-0.1l0.7-4.4c0.4,0.1,0.7,0.1,1,0.2c0.3,0,0.7,0.1,1.3,0.1s1.1,0,1.6,0s0.9,0,1.3,0
									h1.3h1.6h1.5c0.5,0,0.9,0,1.3,0c0.4,0,0.9,0,1.3,0c0.5,0,1,0,1.6,0c0.5,0,0.9-0.1,1.3-0.1c0.3-0.1,0.7-0.2,1-0.3l0.7,4.5
									L246.9,81.5z M225.8,82.5c-0.2-1-0.6-1.8-1.1-2.6c-0.5-0.8-1.1-1.4-1.8-1.9s-1.6-0.7-2.6-0.7s-1.9,0.2-2.6,0.7
									c-0.7,0.5-1.3,1.1-1.8,1.9s-0.8,1.6-1,2.6s-0.3,2-0.3,3s0.1,2.1,0.4,3c0.2,1,0.6,1.8,1.1,2.6c0.5,0.7,1.1,1.3,1.8,1.8
									c0.7,0.4,1.6,0.7,2.6,0.7s1.8-0.2,2.5-0.7s1.3-1.1,1.8-1.9s0.8-1.7,1.1-2.6s0.4-1.9,0.4-2.9
									C226.2,84.5,226.1,83.5,225.8,82.5 M228.4,88.8c-0.5,1-1.1,2-1.9,2.7c-0.8,0.8-1.7,1.4-2.8,1.8s-2.2,0.6-3.4,0.6
									s-2.3-0.2-3.3-0.6s-2-1-2.8-1.7s-1.4-1.6-1.9-2.7c-0.5-1-0.7-2.2-0.7-3.4c0-1.3,0.2-2.5,0.7-3.6s1.1-2,1.9-2.7
									c0.8-0.7,1.8-1.3,2.8-1.7c1.1-0.4,2.2-0.6,3.4-0.6c1.3,0,2.5,0.2,3.5,0.7s1.9,1.1,2.6,1.9c0.7,0.8,1.3,1.7,1.7,2.7
									s0.6,2.1,0.6,3.2C229.1,86.6,228.8,87.7,228.4,88.8 M210.3,93.8h-14.9v-0.2c0.4-0.1,0.8-0.2,1.1-0.3
									c0.4-0.1,0.7-0.3,0.9-0.6c0.1-0.1,0.1-0.2,0.2-0.4c0.1-0.2,0.1-0.4,0.1-0.6s0.1-0.5,0.1-0.7c0-0.3,0-0.5,0-0.8
									c0-0.2,0-0.5,0-0.9s0-0.8,0-1.2s0-0.9,0-1.4v-1.3v-4.5v-0.8c0-0.3,0-0.5,0-0.8c0-0.2-0.1-0.5-0.1-0.6c0-0.2-0.1-0.3-0.2-0.4
									c-0.2-0.3-0.5-0.5-0.9-0.6s-0.7-0.2-1.1-0.3v-0.2h7.4v0.2c-0.2,0-0.4,0.1-0.7,0.1c-0.3,0.1-0.5,0.2-0.8,0.3
									c-0.2,0.1-0.5,0.3-0.6,0.6c-0.2,0.3-0.3,0.6-0.3,1c0,0.5,0,1,0,1.5c0,0.4,0,0.9,0,1.3s0,0.9,0,1.3V85v1.4v1.2
									c0,0.4,0,0.8,0,1.2c0,0.4,0,0.9,0,1.4s0,1,0.1,1.4c0,0.4,0.1,0.8,0.2,1c0.1,0.1,0.2,0.2,0.4,0.2c0.2,0.1,0.4,0.1,0.7,0.2
									s0.5,0.1,0.9,0.1c0.3,0,0.6,0.1,0.9,0.1c0.1,0,0.3,0,0.6,0s0.6,0,0.9,0c0.3,0,0.7-0.1,1-0.1s0.6-0.1,0.9-0.2
									c0.6-0.2,1.1-0.4,1.5-0.7c0.4-0.3,0.8-0.6,1.1-1s0.5-0.8,0.7-1.2c0.2-0.4,0.4-0.9,0.6-1.3l0.2,0.1L210.3,93.8z M193.3,93.8
									h-14.2v-0.2c0.4-0.1,0.7-0.2,1.1-0.3c0.3-0.1,0.6-0.3,0.8-0.6c0.1-0.1,0.1-0.2,0.2-0.4c0-0.2,0.1-0.4,0.1-0.6
									s0.1-0.5,0.1-0.7s0-0.5,0-0.8c0-0.2,0-0.5,0-0.9s0-0.8,0-1.2c0-0.4,0-0.9,0-1.4v-1.3v-4.5c0-0.3,0-0.6,0-0.9s0-0.6,0-0.8
									c0-0.3-0.1-0.5-0.1-0.7c-0.1-0.2-0.1-0.4-0.2-0.5c-0.2-0.2-0.5-0.4-0.7-0.5c-0.3-0.1-0.6-0.1-1-0.2v-0.2h12.8l1.6,3.8
									l-0.2,0.1c-1.2-1.6-2.4-2.6-3.5-3.1c-0.3-0.1-0.7-0.2-1.5-0.3c-0.7-0.1-1.6-0.1-2.6-0.1c-0.3,0-0.7,0-1,0s-0.6,0-0.8,0.1
									c0,0.2-0.1,0.8-0.1,1.5c0,0.8,0,1.7,0,2.7v1.5c0,0.4,0,0.7,0,1s0,0.5,0,0.6v0.3h0.5c0.2,0,0.5,0,0.8,0s0.6,0,0.9-0.1
									c0.3,0,0.6-0.1,0.8-0.1c0.5-0.1,0.8-0.3,1.2-0.4c0.3-0.2,0.6-0.4,0.8-0.7c0.2-0.3,0.3-0.6,0.5-0.9c0.1-0.3,0.2-0.7,0.3-1.2
									h0.3V89h-0.3c-0.1-0.5-0.3-1-0.6-1.5s-0.5-0.9-0.8-1.2c-0.2-0.2-0.5-0.4-0.9-0.5c-0.3-0.1-0.8-0.2-1.2-0.3
									c-0.2,0-0.4,0-0.6,0c-0.2,0-0.3,0-0.5,0h-0.5h-0.6c0,0.2,0,0.5,0,0.9v1.3v0.7v0.8c0,0.2,0,0.5,0,0.7s0,0.4,0,0.6
									c0,0.5,0,1,0.1,1.4c0,0.4,0.1,0.8,0.3,1c0.1,0.2,0.5,0.4,1,0.5s1.1,0.1,1.7,0.1c0.3,0,0.6,0,1,0s0.8-0.1,1.3-0.1
									c0.5-0.1,0.9-0.2,1.4-0.4c0.4-0.2,0.8-0.4,1.2-0.8c0.4-0.3,0.8-0.7,1.1-1.2c0.4-0.5,0.7-1,1.1-1.7l0.3,0.1L193.3,93.8z
									 M176.8,82.5c-0.2-0.7-0.5-1.4-0.9-2.1c-0.4-0.6-0.9-1.2-1.4-1.7s-1.2-0.9-1.9-1.1c-0.7-0.3-1.4-0.4-2.2-0.4
									c-1.1,0-2,0.2-2.8,0.7s-1.5,1.1-2.1,1.9s-1,1.7-1.3,2.7s-0.5,2-0.5,3.1s0.2,2.2,0.5,3.1c0.3,1,0.8,1.8,1.4,2.5
									c0.6,0.7,1.3,1.3,2.1,1.7c0.8,0.4,1.8,0.6,2.8,0.6c0.8,0,1.6-0.1,2.3-0.4s1.3-0.7,1.9-1.2c0.5-0.5,1-1,1.4-1.7
									c0.4-0.6,0.6-1.3,0.8-1.9h0.3l-0.1,5.1h-0.3c-0.2-0.3-0.4-0.5-0.6-0.7c-0.2-0.2-0.3-0.3-0.4-0.3c0,0-0.2,0.1-0.4,0.2
									c-0.2,0.2-0.6,0.3-1.1,0.5s-1,0.4-1.7,0.5s-1.4,0.2-2.3,0.2c-1.4,0-2.7-0.2-3.9-0.6s-2.1-1-2.9-1.7
									c-0.8-0.7-1.4-1.6-1.9-2.7c-0.4-1-0.6-2.2-0.6-3.4c0-0.3,0-0.6,0.1-0.9c0-0.4,0.1-0.7,0.2-1.1c0.1-0.4,0.2-0.8,0.4-1.3
									s0.4-0.9,0.7-1.3c0.3-0.5,0.7-1,1.2-1.5s1-0.9,1.7-1.3c0.6-0.4,1.4-0.7,2.2-0.9c0.8-0.2,1.7-0.3,2.8-0.3
									c0.9,0,1.7,0.1,2.4,0.3c0.7,0.2,1.3,0.4,1.7,0.6c0.5,0.2,0.8,0.4,1.1,0.6c0.2,0.2,0.4,0.3,0.4,0.3s0.1,0,0.2-0.1
									c0.1-0.1,0.2-0.2,0.3-0.3c0.1-0.1,0.2-0.2,0.3-0.3c0.1-0.1,0.2-0.3,0.3-0.4h0.3v5.2L176.8,82.5z M158.2,77.8
									c-0.3,0.2-0.6,0.5-0.8,1c-0.1,0.2-0.2,0.7-0.2,1.3c0,0.6-0.1,1.3-0.1,2s-0.1,1.4-0.1,2.3s0,1.9,0,2.9v1.5c0,0.5,0,1.1,0,1.7
									s0,1.1,0,1.7v1.5c0,0.1,0,0.1-0.1,0.1c0,0-0.1,0.1-0.2,0.1c-0.1,0-0.3-0.1-0.4-0.2c-1.3-1.5-2.5-2.9-3.6-4.2
									c-1.1-1.3-2.1-2.5-3.1-3.6s-1.9-2.3-2.9-3.4c-0.9-1.1-1.9-2.2-3-3.4v9.8c0,0.8,0,1.5,0.1,2.1c0,0.6,0.1,1.1,0.3,1.4
									c0.2,0.4,0.4,0.6,0.8,0.8c0.4,0.2,0.9,0.3,1.5,0.4v0.2h-5.7v-0.2c0.4,0,0.7-0.1,1.1-0.3c0.4-0.1,0.7-0.4,0.9-0.7
									c0.2-0.3,0.4-0.8,0.4-1.4c0.1-0.6,0.1-1.4,0.1-2.3c0-0.7,0.1-1.4,0.1-2.3s0-1.9,0-2.9v-1.1v-0.9v-0.9c0-0.3,0-0.7,0-1.1
									s-0.2-0.8-0.3-1.1c-0.2-0.3-0.4-0.5-0.6-0.7c-0.2-0.2-0.5-0.3-0.8-0.3c-0.3-0.1-0.5-0.1-0.8-0.1v-0.2h4.7l11,12.8v-7.9
									c0-0.6,0-1.2,0-1.8c0-0.6-0.1-1-0.2-1.3c-0.2-0.4-0.4-0.8-0.8-1.1c-0.4-0.3-1-0.5-1.7-0.6v-0.2h5.7v0.2
									C159,77.5,158.5,77.6,158.2,77.8 M131.5,81.1c0.2,0.5,0.4,1.1,0.7,1.8c0.3,0.6,0.5,1.3,0.8,2s0.5,1.4,0.8,2.1H128
									c0.4-0.9,0.7-1.8,1-2.5c0.3-0.8,0.6-1.5,0.9-2.1c0.3-0.6,0.5-1.1,0.7-1.6c0.2-0.4,0.3-0.7,0.4-0.9
									C131.1,80.1,131.3,80.6,131.5,81.1 M140.7,93.8v-0.3c-0.4,0-0.7-0.1-0.9-0.2c-0.3-0.1-0.5-0.3-0.7-0.4
									c-0.2-0.2-0.3-0.3-0.4-0.5c-0.1-0.2-0.2-0.3-0.2-0.3c-0.2-0.4-0.4-0.8-0.5-1.1c-0.1-0.3-0.3-0.7-0.5-1.2
									c-0.4-1-0.7-2-1.1-2.9c-0.4-1-0.8-2-1.1-3.1c-0.4-1.1-0.8-2.2-1.2-3.3c-0.4-1.1-0.9-2.4-1.4-3.6h-0.2
									c-0.1,0.1-0.1,0.2-0.3,0.4c-0.1,0.2-0.3,0.3-0.4,0.5c-0.2,0.2-0.4,0.4-0.6,0.5c-0.2,0.2-0.5,0.3-0.8,0.4l0.2,0.5
									c-0.4,0.9-0.8,1.8-1.2,2.8s-0.8,2-1.3,3c-0.4,1-0.8,1.9-1.2,2.9c-0.4,0.9-0.8,1.8-1.1,2.5c-0.4,0.8-0.7,1.4-0.9,1.8
									c-0.2,0.4-0.4,0.7-0.5,0.8c0,0.1-0.2,0.2-0.5,0.3c-0.3,0.2-0.6,0.3-1,0.3v0.3h4.9v-0.2c-0.2,0-0.4-0.1-0.6-0.1
									s-0.4-0.1-0.6-0.2s-0.4-0.2-0.5-0.3c-0.1-0.1-0.2-0.3-0.2-0.5c0-0.3,0.2-0.9,0.5-1.8c0.2-0.5,0.4-1.1,0.6-1.6
									s0.4-1.1,0.7-1.7h6.2c0.2,0.6,0.4,1.2,0.6,1.7c0.2,0.6,0.4,1.1,0.5,1.5c0.2,0.5,0.3,0.8,0.4,1.2c0.1,0.3,0.1,0.5,0.1,0.7
									s-0.1,0.4-0.2,0.5c-0.1,0.1-0.3,0.2-0.5,0.3c-0.2,0.1-0.4,0.1-0.6,0.2c-0.2,0-0.3,0-0.3,0v0.2L140.7,93.8L140.7,93.8z
									 M123,93.8h-14.9v-0.2c0.4-0.1,0.8-0.2,1.1-0.3c0.4-0.1,0.7-0.3,0.9-0.6c0.1-0.1,0.1-0.2,0.2-0.4c0.1-0.2,0.1-0.4,0.1-0.6
									s0.1-0.5,0.1-0.7s0-0.5,0-0.8c0-0.2,0-0.5,0-0.9s0-0.8,0-1.2c0-0.4,0-0.9,0-1.4v-1.3v-4.5v-0.8c0-0.3,0-0.5,0-0.8
									c0-0.2-0.1-0.5-0.1-0.6c0-0.2-0.1-0.3-0.2-0.4c-0.2-0.3-0.5-0.5-0.9-0.6s-0.7-0.2-1.1-0.3v-0.2h7.4v0.2
									c-0.2,0-0.4,0.1-0.7,0.1c-0.3,0.1-0.5,0.2-0.8,0.3c-0.2,0.1-0.5,0.3-0.6,0.6s-0.3,0.6-0.3,1c0,0.5,0,1,0,1.5
									c0,0.4,0,0.9,0,1.3s0,0.9,0,1.3V85v1.4v1.2c0,0.4,0,0.8,0,1.2c0,0.4,0,0.9,0,1.4s0,1,0.1,1.4c0,0.4,0.1,0.8,0.2,1
									c0.1,0.1,0.2,0.2,0.4,0.2c0.2,0.1,0.4,0.1,0.7,0.2c0.3,0.1,0.5,0.1,0.9,0.1c0.3,0,0.6,0.1,0.9,0.1c0.1,0,0.3,0,0.6,0
									s0.6,0,0.9,0s0.7-0.1,1-0.1s0.6-0.1,0.9-0.2c0.6-0.2,1.1-0.4,1.5-0.7c0.4-0.3,0.8-0.6,1.1-1c0.3-0.4,0.5-0.8,0.7-1.2
									c0.2-0.4,0.4-0.9,0.6-1.3l0.2,0.1L123,93.8z"/>
							</g>
						</g>
					</g>
					<g>
						<g>
							<g>
								<defs>
									<rect id="SVGID_45_" x="28.7" y="34.6" width="243.6" height="140.9"/>
								</defs>
								<clipPath id="SVGID_46_">
									<use xlink:href="#SVGID_45_"  style="overflow:visible;"/>
								</clipPath>
								<path class="st22" d="M45.7,54.7c2.6,0,4.7-2.1,4.7-4.7c0-2.6-2.1-4.7-4.7-4.7S41,47.4,41,50C41.1,52.6,43.2,54.7,45.7,54.7
									"/>
							</g>
						</g>
					</g>
				</g>
			</g>
		</g>
	</g>
</g>
</svg>
